<svg xmlns="http://www.w3.org/2000/svg">
  <defs>
    <symbol id="logo">
      <path d="M93.6 80.8c0 2.4-9.5 4.3-21.2 4.3s-21.2-1.9-21.2-4.3 9.5-4.3 21.2-4.3 21.2 1.9 21.2 4.3zM83.8 90.5c0 1.3-5.1 2.4-11.3 2.4-6.3 0-11.3-1.1-11.3-2.4 0-1.3 5.1-2.4 11.3-2.4 6.2 0 11.3 1 11.3 2.4z" fill="#FDB724"/><path d="M98.6 44.7c-1.9-.5-3.8-.7-5.7-.6-7.7.5-14.6 5.8-16.6 13.7-.9 3.6-1.1 8 1 11.1 2 2.9 5.2 4.3 8 1.5 3-3 5.3-15.3 13.6-15.5 2.7-.1 4.5 1.6 4.7 4 .1 1.3-.3 2.4-1.1 3.3-.8.9-1.7 1.5-2.9 2.1 1-1.2.8-3.8-1.1-3.8-3.9-.1-3.4 5.3-3 7.7.5 3.1 1.8 6.5 4.7 8.2.6.4 1.4.6 2.2.7 1 .1 2.6-.1 4.3-1.7 2.3-2.2 4-5.1 4.9-8.4 2.6-9.8-3.2-19.8-13-22.3z" fill="#15A4AB"/><path d="M68.9 59.1c-1.5-8-7.9-13.8-15.6-14.8-1.9-.3-3.8-.2-5.8.2-9.9 1.9-16.5 11.4-14.6 21.4.6 3.3 2.1 6.2 4.1 8.5.8.8 1.9 1.8 3.3 2 5.4.7 8.3-6.5 8.2-9.2-1.8.4-3.6-.2-3.6-.2s3.7-7.2 4.3-14.1c4.4 8.4 8.9 11.4 9 11.4 0 0-1.5 1.2-3.3 1.5.9 2.4 5.8 7.8 10.4 5.9 1.7-.9 2.4-2.2 2.8-3.1 0-.1.1-.2.1-.4v-.1c1-2.7 1.3-5.9.7-9z" fill="#72BF44"/><path d="M84.4 28.8c-3.1-2.9-7.7-4.6-12-4.6s-8.8 1.7-12 4.6c-2.5 2.3-6.5 7-4.6 10.7 1.1 2 3.5 3 5.5 3.6 3.2.9 6.4 1.3 9.3 1.3-1.1-1.5-2.5-7.2 1.8-7.3 4.3 0 2.9 5.8 1.8 7.3 3.2 0 6.6-.4 9.3-1.3 2-.7 4.4-1.6 5.5-3.6 1.9-3.7-2.1-8.5-4.6-10.7z" fill="#F6861F"/><path d="M172.1 83.4c0 1.1-.7 1.6-2.1 1.6h-1.5c-.5 0-.7-.2-.7-.7v-4c0-.5.2-.7.7-.7h1.4c1.3 0 1.9.5 1.9 1.5 0 .5-.2.9-.6 1.1.3.1.5.3.7.5.1.1.2.4.2.7zm-3.1-3v1.4h.7c.5 0 .8-.2.8-.7 0-.4-.3-.7-.8-.7h-.7zm1.8 3c0-.5-.3-.8-1-.8h-.8v1.5h.8c.7 0 1-.3 1-.7zM174.5 78.1c0 .2-.1.4-.2.5-.1.1-.3.2-.5.2s-.4-.1-.5-.2c-.1-.1-.2-.3-.2-.5s.1-.4.2-.5c.1-.1.3-.2.5-.2s.4.1.5.2c.2.2.2.3.2.5zm-.1 6.1c0 .5-.2.8-.6.8-.4 0-.6-.3-.6-.8v-3.9c0-.5.2-.8.6-.8.4 0 .6.3.6.8v3.9zM181 85.6c0 .4-.2.6-.6.6-.3 0-.5-.2-.5-.6V85h-3.7v.6c0 .4-.2.6-.5.6-.4 0-.6-.2-.6-.6v-1c0-.3.1-.5.2-.5.1-.1.3-.1.4-.2.2-.1.2-.4.2-.7v-2.3c0-.5.1-.9.4-1.1.2-.2.6-.3 1.1-.3h2.2c.4 0 .6.3.6.8V84h.1c.4 0 .6.2.6.5v1.1h.1zm-1.9-1.6v-3.5h-1.4c-.3 0-.4.1-.4.4v2.3c0 .3-.1.6-.2.8h2zM186.3 84.5c0 .1-.1.3-.2.4-.1.1-.2.1-.4.1s-.4-.1-.7-.3l-2-2.2v1.7c0 .5-.2.8-.6.8-.4 0-.6-.3-.6-.8v-3.9c0-.5.2-.8.6-.8.4 0 .6.3.6.8v1.3l1.8-1.8c.2-.2.4-.3.6-.3.2 0 .3 0 .4.1.1.1.2.2.2.4s-.1.4-.3.6l-1.6 1.4 1.9 1.9c.2.2.3.4.3.6zM192 82.2c0 .8-.2 1.4-.6 2-.4.6-1 .9-1.8.9-.5 0-1-.2-1.4-.6v1.9c0 .6-.2.8-.6.8-.4 0-.6-.3-.6-.8v-6.1c0-.5.2-.8.6-.8.3 0 .4.1.5.4 0 .1 0 .1.1.3.3-.4.8-.6 1.4-.6.8 0 1.3.3 1.8.9.4.3.6 1 .6 1.7zm-1.2.1c0-.4-.1-.8-.3-1.1-.2-.4-.5-.5-1-.5-.4 0-.8.2-1 .5-.2.3-.3.7-.3 1.1v.2c0 .4.1.7.3 1 .2.3.6.5 1 .5s.8-.2 1-.5c.2-.4.3-.8.3-1.2zM198 84.2c0 .5-.2.8-.6.8-.4 0-.6-.3-.6-.8v-2.6l-2.4 2.7c0 .5-.2.7-.6.7-.4 0-.6-.3-.6-.8v-4c0-.5.2-.8.6-.8.4 0 .6.3.6.8v2.7l2.4-2.8c.1-.5.3-.7.7-.7.4 0 .6.3.6.8v4h-.1zM203 80c0 .4-.2.5-.7.5h-.8v3.7c0 .5-.2.8-.6.8-.4 0-.6-.3-.6-.8v-3.6h-.8c-.5 0-.7-.2-.7-.5 0-.4.2-.5.7-.5h2.9c.3-.1.6.1.6.4zM205.1 78.1c0 .2-.1.4-.2.5-.1.1-.3.2-.5.2s-.4-.1-.5-.2c-.1-.1-.2-.3-.2-.5s.1-.4.2-.5c.1-.1.3-.2.5-.2s.4.1.5.2c.2.2.2.3.2.5zm-.1 6.1c0 .5-.2.8-.6.8-.4 0-.6-.3-.6-.8v-3.9c0-.5.2-.8.6-.8.4 0 .6.3.6.8v3.9zM214.8 85.6c0 .4-.2.6-.6.6-.3 0-.5-.2-.5-.6V85H210v.6c0 .4-.2.6-.5.6-.4 0-.6-.2-.6-.6v-1c0-.3.1-.5.2-.5.1-.1.3-.1.4-.2.1-.1.2-.4.2-.7v-2.3c0-.5.1-.9.4-1.1.2-.2.6-.3 1.1-.3h2.2c.4 0 .6.3.6.8V84h.1c.4 0 .6.2.6.5v1.1h.1zm-1.9-1.6v-3.5h-1.4c-.3 0-.4.1-.4.4v2.3c0 .3-.1.6-.2.8h2zM220.2 84.2c0 .5-.2.8-.6.8-.4 0-.6-.3-.6-.8v-3.6h-1.4c-.3 0-.4.1-.4.4v2.7c0 .4-.1.7-.3 1-.2.3-.5.4-.9.4-.3 0-.5 0-.6-.1-.2-.1-.3-.2-.3-.5 0-.2.1-.4.2-.4.1-.1.3-.1.5-.1.1 0 .2-.1.2-.4V80.9c0-.5.1-.9.4-1.1.2-.2.6-.3 1.2-.3h2.1c.4 0 .6.3.6.8v3.9h-.1zM225.6 84.3c0 .2-.1.4-.2.5-.1.2-.3.2-.5.2s-.4-.1-.5-.2c-.1-.1-.2-.3-.2-.5v-1.5l-1.9 1.9-.2.2c-.1.1-.2.1-.3.1-.1 0-.3 0-.4-.1-.1-.1-.2-.2-.2-.3 0-.2.1-.4.2-.6l1.3-1.2c-1-.2-1.4-.8-1.4-1.7 0-.5.2-.9.5-1.2.3-.3.8-.5 1.6-.5h1.5c.4 0 .7.2.7.7v4.2zm-1.2-2.4v-1.5h-.7c-.7 0-1 .3-1 .8 0 .6.3.8 1 .8.2 0 .4-.1.7-.1zM233.9 80c0 .4-.2.5-.7.5h-.8v3.7c0 .5-.2.8-.6.8-.4 0-.6-.3-.6-.8v-3.6h-.8c-.5 0-.7-.2-.7-.5 0-.4.2-.5.7-.5h2.9c.3-.1.6.1.6.4zM239.4 81.9c0 .2-.1.4-.2.5-.1.1-.3.2-.6.2h-3c0 .4.2.7.4 1 .3.2.6.4 1 .4.3 0 .7-.1 1.1-.3.4-.2.6-.3.7-.3.3 0 .5.2.5.5 0 .1 0 .2-.2.4-.2.3-.5.5-1 .7-.4.1-.8.2-1.2.2-.8 0-1.4-.3-1.9-.8s-.7-1.2-.7-2 .2-1.4.7-2c.5-.5 1.1-.8 1.9-.8.7 0 1.3.2 1.7.8.6.3.8.9.8 1.5zm-1.2-.1c0-.4-.1-.7-.3-.9-.2-.3-.5-.4-.9-.4s-.7.1-.9.4c-.2.3-.4.6-.4.9h2.5zM245.4 82.3c0 .8-.2 1.5-.6 2-.5.5-1.1.8-1.9.8-.8 0-1.5-.3-1.9-.8-.4-.5-.6-1.2-.6-2V81c0-1.7.5-2.8 1.5-3.1.2-.1.6-.1 1-.1s.8-.1 1-.1c.2-.1.4-.2.5-.3.1-.1.2-.2.4-.2.3 0 .5.2.5.5s-.1.6-.4.8c-.2.2-.7.3-1.3.3-.7 0-1.1.1-1.3.2-.4.2-.6.6-.6 1.2.4-.4.9-.5 1.5-.5.8 0 1.4.3 1.8.8.2.3.4.9.4 1.8zm-1.3-.1c0-1.1-.4-1.7-1.3-1.7-.4 0-.8.2-1 .5-.2.3-.3.7-.3 1.1 0 1.1.4 1.7 1.3 1.7.9.2 1.3-.4 1.3-1.6zM251.2 81.9c0 .2-.1.4-.2.5-.1.1-.3.2-.6.2h-3c0 .4.2.7.4 1 .3.2.6.4 1 .4.3 0 .7-.1 1.1-.3.4-.2.6-.3.7-.3.3 0 .5.2.5.5 0 .1-.1.2-.2.4-.2.3-.5.5-1 .7-.4.1-.8.2-1.2.2-.8 0-1.4-.3-1.9-.8s-.7-1.2-.7-2 .2-1.4.7-2c.5-.5 1.1-.8 1.9-.8.7 0 1.3.2 1.7.8.6.3.8.9.8 1.5zm-1.2-.1c0-.4-.1-.7-.3-.9-.2-.3-.5-.4-.9-.4s-.7.1-.9.4c-.2.3-.4.6-.4.9h2.5z" fill="#6D6F71"/><path d="M134.3 60.3h2.4v-6.4c0-2.2.8-3.3 2.3-3.3 1.6 0 2.3 1.1 2.3 3.3v14.4c0 2.2-.8 3.3-2.3 3.3-1.6 0-2.3-1.1-2.3-3.3v-3.8h-3.2c-2.2 0-3.9-.6-5-1.8-1.2-1.2-1.7-2.9-1.7-5.1v-3.7c0-2.2.8-3.3 2.3-3.3 1.6 0 2.3 1.1 2.3 3.3v3.7c0 1.1.2 1.8.6 2.2.5.3 1.2.5 2.3.5zM154.1 50.8c2.2 0 3.3.7 3.3 2.2 0 1.5-1.1 2.2-3.3 2.2h-3.8v3.7h3.3c2.2 0 3.3.7 3.3 2.2 0 1.5-1.1 2.2-3.3 2.2h-3.3v3.9h4c2.2 0 3.3.7 3.3 2.2 0 1.4-1.1 2.2-3.3 2.2h-5.5c-1.2 0-2-.2-2.5-.6-.5-.4-.7-1.2-.7-2.4V54.1c0-1.2.2-2.1.7-2.6.5-.5 1.3-.7 2.5-.7h5.3zM163.1 71.6c-1.6 0-2.3-1.1-2.3-3.3V54.1c0-1.2.2-2.1.7-2.6.5-.5 1.3-.7 2.5-.7h4.2c2.3 0 4.1.6 5.4 1.8 1.4 1.2 2.1 3 2.1 5.2s-.6 3.9-1.9 5.2c-1.3 1.2-3 1.8-5.2 1.8h-3.2v3.5c0 2.2-.8 3.3-2.3 3.3zm2.3-11.1h2c2.1 0 3.2-.9 3.2-2.7 0-1.8-1.1-2.7-3.2-2.7h-2v5.4zM178.2 68.3V53.9c0-2.2.8-3.3 2.3-3.3 1.6 0 2.3 1.1 2.3 3.3v4.5l6-6.1c1.1-1.1 1.9-1.7 2.6-1.7.6 0 1.1.2 1.6.7.5.4.7 1 .7 1.6 0 .4-.2.9-.7 1.4l-1.2 1.2-4.7 4.7 6.3 7.1c.8.9 1.2 1.6 1.2 2.3 0 .6-.2 1.1-.7 1.5-.4.4-.9.7-1.5.7-.8 0-1.6-.5-2.5-1.6l-6.2-7.2-.8.7v4.8c0 2.2-.8 3.3-2.3 3.3-1.6-.2-2.4-1.3-2.4-3.5zM205 50.5c1.7 0 2.8.9 3.5 2.7l5.2 14.8c.2.6.3 1.1.3 1.5 0 .6-.2 1.2-.7 1.5-.4.4-1 .6-1.6.6-1.2 0-2-.7-2.5-2.2l-.8-2.4h-7.3l-.8 2.6c-.5 1.4-1.2 2-2.3 2-.7 0-1.2-.2-1.6-.6-.4-.4-.6-.9-.6-1.6 0-.5.1-.9.2-1.4l5.4-14.5c.8-2 2-3 3.6-3zm-.1 5.1-2.3 7.2h4.7l-2.4-7.2zM224.8 71.9c-3.1 0-5.6-1-7.4-3.1-1.8-2-2.6-4.5-2.6-7.7 0-3.1.9-5.6 2.7-7.7 1.9-2.1 4.3-3.2 7.4-3.2 1.1 0 2.1.2 3.1.5 1.2.4 2.1.9 2.6 1.6.3.4.5.8.5 1.2 0 .5-.2 1-.6 1.5-.4.4-.9.6-1.4.6-.5 0-1.1-.1-1.8-.4-.7-.3-1.5-.4-2.3-.4-1.7 0-3 .7-3.9 2-.8 1.2-1.2 2.6-1.2 4.4 0 1.7.4 3.2 1.3 4.3.9 1.2 2.2 1.9 3.9 1.9.8 0 1.6-.2 2.5-.5.9-.3 1.5-.5 1.9-.5.5 0 1 .2 1.3.6.4.4.5.9.5 1.4 0 .5-.2.9-.4 1.3-1.1 1.5-3.1 2.2-6.1 2.2zM247.6 58.8 239.1 70c-.8 1-1.7 1.6-2.7 1.6-1.4 0-2.1-.9-2.1-2.8v-15c0-2.2.8-3.3 2.3-3.3 1.6 0 2.3 1.1 2.3 3.3v9.6l8.7-11.4c.8-1 1.6-1.5 2.5-1.5 1.4 0 2.2 1.1 2.2 3.2v14.6c0 2.2-.8 3.3-2.3 3.3-1.6 0-2.3-1.1-2.3-3.3v-9.5h-.1z" fill="#000"/>
    </symbol>
    <symbol id="user">
      <path d="M210.352 246.633c33.882 0 63.222-12.153 87.195-36.13 23.973-23.972 36.125-53.304 36.125-87.19 0-33.876-12.152-63.211-36.129-87.192C273.566 12.152 244.23 0 210.352 0c-33.887 0-63.22 12.152-87.192 36.125s-36.129 53.309-36.129 87.188c0 33.886 12.156 63.222 36.133 87.195 23.977 23.969 53.313 36.125 87.188 36.125zM426.129 393.703c-.692-9.976-2.09-20.86-4.149-32.351-2.078-11.579-4.753-22.524-7.957-32.528-3.308-10.34-7.808-20.55-13.37-30.336-5.774-10.156-12.555-19-20.165-26.277-7.957-7.613-17.699-13.734-28.965-18.2-11.226-4.44-23.668-6.69-36.976-6.69-5.227 0-10.281 2.144-20.043 8.5a2711.03 2711.03 0 0 1-20.879 13.46c-6.707 4.274-15.793 8.278-27.016 11.903-10.949 3.543-22.066 5.34-33.039 5.34-10.972 0-22.086-1.797-33.047-5.34-11.21-3.622-20.296-7.625-26.996-11.899-7.77-4.965-14.8-9.496-20.898-13.469-9.75-6.355-14.809-8.5-20.035-8.5-13.313 0-25.75 2.254-36.973 6.7-11.258 4.457-21.004 10.578-28.969 18.199-7.605 7.281-14.39 16.12-20.156 26.273-5.558 9.785-10.058 19.992-13.371 30.34-3.2 10.004-5.875 20.945-7.953 32.524-2.059 11.476-3.457 22.363-4.149 32.363A438.821 438.821 0 0 0 0 423.949c0 26.727 8.496 48.363 25.25 64.32 16.547 15.747 38.441 23.735 65.066 23.735h246.532c26.625 0 48.511-7.984 65.062-23.734 16.758-15.946 25.254-37.586 25.254-64.325-.004-10.316-.351-20.492-1.035-30.242zm0 0"/>
    </symbol>
    <symbol id="phone">
      <path
        d="M25.302 0H9.698a2.37 2.37 0 00-2.364 2.364v30.271A2.371 2.371 0 009.698 35h15.604a2.37 2.37 0 002.364-2.364V2.364A2.37 2.37 0 0025.302 0zM15.004 1.704h4.992a.286.286 0 010 .573h-4.992a.286.286 0 110-.573zM17.5 33.818a1.183 1.183 0 11.001-2.365 1.183 1.183 0 01-.001 2.365zm8.521-3.193H8.979V3.749h17.042v26.876zM17.5 22.689a8.415 8.415 0 01-5.99-2.48.596.596 0 010-.839.596.596 0 01.84 0 7.234 7.234 0 005.15 2.134 7.234 7.234 0 005.15-2.134.596.596 0 01.84 0c.23.231.23.606 0 .839a8.41 8.41 0 01-5.99 2.48zm-1.336-9.677a1.44 1.44 0 11-2.878-.002 1.44 1.44 0 012.878.002zm5.549 0a1.439 1.439 0 11-2.878-.002 1.439 1.439 0 012.878.002z"/>
    </symbol>
    <symbol id="health">
      <path d="M53 24.267C53 42.633 32 61 32 61S11 42.633 11 24.267a21 21 0 1 1 42 0z"/>
      <path d="M19.625 46.953A86.778 86.778 0 0 0 32 61s17.6-15.4 20.567-32.1c-8.144 9.04-20.061 15.6-32.942 18.053z"/>
      <circle cx="32" cy="24" fill="#eee" r="17"/>
      <path d="M29 21v-8h6v8h8v6h-8v8h-6v-8h-8v-6z" fill="#ad2a37"/>
    </symbol>
    <symbol id="map">
      <path d="M258.499 512a15 15 0 0 1-12.745-7.091L102.869 274.652C85.289 246.26 76 213.534 76 180 76 80.748 156.748 0 256 0s180 80.748 180 180c0 32.539-8.779 64.428-25.389 92.22L271.368 504.707a15 15 0 0 1-12.75 7.292l-.119.001zM256 30c-82.71 0-150 67.29-150 150 0 27.95 7.734 55.214 22.368 78.846l129.905 209.34 126.594-211.368C398.689 233.688 406 207.121 406 180c0-82.71-67.29-150-150-150z"/>
      <path d="M256 270c-31.397 0-60.044-15.977-76.631-42.737C170.62 213.117 166 196.778 166 180c0-49.626 40.374-90 90-90s90 40.374 90 90c0 16.284-4.371 32.209-12.639 46.055C316.913 253.574 287.994 270 256 270zm0-150c-33.084 0-60 26.916-60 60 0 11.2 3.069 22.082 8.875 31.47C215.945 229.33 235.06 240 256 240c21.337 0 40.629-10.965 51.607-29.331 5.49-9.193 8.393-19.8 8.393-30.669 0-33.084-26.916-60-60-60z"/>
    </symbol>
    <symbol id="clock">
      <path d="M458.406 380.681c-8.863-6.593-21.391-4.752-27.984 4.109A217.989 217.989 0 0 1 418.889 399c-7.315 8.275-6.538 20.915 1.737 28.231a19.923 19.923 0 0 0 13.239 5.016c5.532 0 11.04-2.283 14.992-6.754a257.803 257.803 0 0 0 13.658-16.829c6.593-8.861 4.754-21.391-4.109-27.983zM491.854 286.886c-10.786-2.349-21.447 4.496-23.796 15.288a215.372 215.372 0 0 1-4.646 17.681c-3.261 10.554 2.651 21.752 13.204 25.013 1.967.607 3.955.896 5.911.896 8.54 0 16.448-5.514 19.102-14.102a255.373 255.373 0 0 0 5.514-20.98c2.349-10.792-4.496-21.446-15.289-23.796zM362.139 444.734a216.715 216.715 0 0 1-16.34 8.233c-10.067 4.546-14.542 16.392-9.996 26.459 3.34 7.396 10.619 11.773 18.239 11.773 2.752 0 5.549-.571 8.22-1.777a256.456 256.456 0 0 0 19.377-9.764c9.645-5.384 13.098-17.568 7.712-27.212-5.383-9.643-17.567-13.096-27.212-7.712zM236 96v151.716l-73.339 73.338c-7.81 7.811-7.81 20.474 0 28.284a19.935 19.935 0 0 0 14.143 5.858 19.943 19.943 0 0 0 14.143-5.858l79.196-79.196A20.001 20.001 0 0 0 276 256V96c0-11.046-8.954-20-20-20s-20 8.954-20 20z"/>
      <path d="M492 43c-11.046 0-20 8.954-20 20v55.536C425.448 45.528 344.151 0 256 0 187.62 0 123.333 26.629 74.98 74.98 26.629 123.333 0 187.62 0 256s26.629 132.667 74.98 181.02C123.333 485.371 187.62 512 256 512c.169 0 .332-.021.5-.025.168.004.331.025.5.025 7.208 0 14.487-.304 21.637-.902 11.007-.922 19.183-10.592 18.262-21.599-.923-11.007-10.58-19.187-21.6-18.261-6.044.505-12.2.762-18.299.762-.169 0-.332.021-.5.025-.168-.004-.331-.025-.5-.025-119.103 0-216-96.897-216-216S136.897 40 256 40c76.758 0 147.357 40.913 185.936 106h-54.993c-11.046 0-20 8.954-20 20s8.954 20 20 20H448a63.612 63.612 0 0 0 33.277-9.353 19.968 19.968 0 0 0 1.796-1.152C500.479 164.044 512 144.347 512 122V63c0-11.046-8.954-20-20-20z"/>
    </symbol>
    <symbol id="website">
      <path d="M113.66 23.69q-.345-.435-.72-.87A63.786 63.786 0 0 0 64.92.02C64.61.01 64.31 0 64 0s-.61.01-.92.02a63.789 63.789 0 0 0-48.15 22.96 6.164 6.164 0 0 0-.47.57.138.138 0 0 1-.03.04 63.8 63.8 0 0 0 0 80.82.138.138 0 0 1 .03.04 6.171 6.171 0 0 0 .47.57l.01.01a63.776 63.776 0 0 0 48.14 22.95c.614.02 1.226.02 1.84 0a63.786 63.786 0 0 0 48.02-22.8q.375-.435.72-.87a63.826 63.826 0 0 0 0-80.62zM99.49 62.25a106.208 106.208 0 0 0-4.07-28.03 69.57 69.57 0 0 0 16.19-7.51 60.158 60.158 0 0 1 12.86 35.54zM65.75 3.59c10.69 1.1 19.99 12.14 25.36 28.3a100.612 100.612 0 0 1-25.36 3.58zm-3.5 31.88a100.612 100.612 0 0 1-25.36-3.58c5.37-16.16 14.67-27.2 25.36-28.3zm0 3.5v23.28H32.01a104.4 104.4 0 0 1 3.85-27.02 104.159 104.159 0 0 0 26.39 3.74zm0 26.78v23.28a104.161 104.161 0 0 0-26.39 3.74 104.4 104.4 0 0 1-3.85-27.02zm0 26.78v31.88c-10.69-1.1-19.99-12.14-25.36-28.3a100.612 100.612 0 0 1 25.36-3.58zm3.5 0a100.612 100.612 0 0 1 25.36 3.58c-5.37 16.16-14.67 27.2-25.36 28.3zm0-3.5V65.75h30.24a104.477 104.477 0 0 1-3.85 27.03 103.333 103.333 0 0 0-26.39-3.75zm0-26.78V38.97a103.33 103.33 0 0 0 26.39-3.75 104.478 104.478 0 0 1 3.85 27.03zm43.6-38.26a66.171 66.171 0 0 1-14.98 6.91c-3.84-11.42-9.61-20.5-16.48-25.79a60.6 60.6 0 0 1 31.46 18.88zM50.11 5.11C43.24 10.4 37.47 19.48 33.63 30.9A67.031 67.031 0 0 1 18.65 24 60.513 60.513 0 0 1 50.11 5.11zM16.39 26.7a69.605 69.605 0 0 0 16.19 7.53 106.07 106.07 0 0 0-4.07 28.02H3.53A60.188 60.188 0 0 1 16.39 26.7zm12.12 39.05a106.069 106.069 0 0 0 4.07 28.02v.01a69.183 69.183 0 0 0-16.19 7.52A60.188 60.188 0 0 1 3.53 65.75zM18.65 104a67.031 67.031 0 0 1 14.98-6.9c3.84 11.42 9.61 20.5 16.48 25.79A60.514 60.514 0 0 1 18.65 104zm59.24 18.89c6.87-5.29 12.64-14.37 16.48-25.79a66.169 66.169 0 0 1 14.98 6.91 60.6 60.6 0 0 1-31.46 18.88zm33.72-21.6a69.573 69.573 0 0 0-16.19-7.51 106.208 106.208 0 0 0 4.07-28.03h24.98a60.158 60.158 0 0 1-12.86 35.54z"/>
    </symbol>
  </defs>
</svg>
