<svg xmlns="http://www.w3.org/2000/svg">
  <defs>
    <symbol id="logo">
      <path d="M93.6 80.8c0 2.4-9.5 4.3-21.2 4.3s-21.2-1.9-21.2-4.3 9.5-4.3 21.2-4.3 21.2 1.9 21.2 4.3zM83.8 90.5c0 1.3-5.1 2.4-11.3 2.4-6.3 0-11.3-1.1-11.3-2.4 0-1.3 5.1-2.4 11.3-2.4 6.2 0 11.3 1 11.3 2.4z" fill="#FDB724"/><path d="M98.6 44.7c-1.9-.5-3.8-.7-5.7-.6-7.7.5-14.6 5.8-16.6 13.7-.9 3.6-1.1 8 1 11.1 2 2.9 5.2 4.3 8 1.5 3-3 5.3-15.3 13.6-15.5 2.7-.1 4.5 1.6 4.7 4 .1 1.3-.3 2.4-1.1 3.3-.8.9-1.7 1.5-2.9 2.1 1-1.2.8-3.8-1.1-3.8-3.9-.1-3.4 5.3-3 7.7.5 3.1 1.8 6.5 4.7 8.2.6.4 1.4.6 2.2.7 1 .1 2.6-.1 4.3-1.7 2.3-2.2 4-5.1 4.9-8.4 2.6-9.8-3.2-19.8-13-22.3z" fill="#15A4AB"/><path d="M68.9 59.1c-1.5-8-7.9-13.8-15.6-14.8-1.9-.3-3.8-.2-5.8.2-9.9 1.9-16.5 11.4-14.6 21.4.6 3.3 2.1 6.2 4.1 8.5.8.8 1.9 1.8 3.3 2 5.4.7 8.3-6.5 8.2-9.2-1.8.4-3.6-.2-3.6-.2s3.7-7.2 4.3-14.1c4.4 8.4 8.9 11.4 9 11.4 0 0-1.5 1.2-3.3 1.5.9 2.4 5.8 7.8 10.4 5.9 1.7-.9 2.4-2.2 2.8-3.1 0-.1.1-.2.1-.4v-.1c1-2.7 1.3-5.9.7-9z" fill="#72BF44"/><path d="M84.4 28.8c-3.1-2.9-7.7-4.6-12-4.6s-8.8 1.7-12 4.6c-2.5 2.3-6.5 7-4.6 10.7 1.1 2 3.5 3 5.5 3.6 3.2.9 6.4 1.3 9.3 1.3-1.1-1.5-2.5-7.2 1.8-7.3 4.3 0 2.9 5.8 1.8 7.3 3.2 0 6.6-.4 9.3-1.3 2-.7 4.4-1.6 5.5-3.6 1.9-3.7-2.1-8.5-4.6-10.7z" fill="#F6861F"/><path d="M172.1 83.4c0 1.1-.7 1.6-2.1 1.6h-1.5c-.5 0-.7-.2-.7-.7v-4c0-.5.2-.7.7-.7h1.4c1.3 0 1.9.5 1.9 1.5 0 .5-.2.9-.6 1.1.3.1.5.3.7.5.1.1.2.4.2.7zm-3.1-3v1.4h.7c.5 0 .8-.2.8-.7 0-.4-.3-.7-.8-.7h-.7zm1.8 3c0-.5-.3-.8-1-.8h-.8v1.5h.8c.7 0 1-.3 1-.7zM174.5 78.1c0 .2-.1.4-.2.5-.1.1-.3.2-.5.2s-.4-.1-.5-.2c-.1-.1-.2-.3-.2-.5s.1-.4.2-.5c.1-.1.3-.2.5-.2s.4.1.5.2c.2.2.2.3.2.5zm-.1 6.1c0 .5-.2.8-.6.8-.4 0-.6-.3-.6-.8v-3.9c0-.5.2-.8.6-.8.4 0 .6.3.6.8v3.9zM181 85.6c0 .4-.2.6-.6.6-.3 0-.5-.2-.5-.6V85h-3.7v.6c0 .4-.2.6-.5.6-.4 0-.6-.2-.6-.6v-1c0-.3.1-.5.2-.5.1-.1.3-.1.4-.2.2-.1.2-.4.2-.7v-2.3c0-.5.1-.9.4-1.1.2-.2.6-.3 1.1-.3h2.2c.4 0 .6.3.6.8V84h.1c.4 0 .6.2.6.5v1.1h.1zm-1.9-1.6v-3.5h-1.4c-.3 0-.4.1-.4.4v2.3c0 .3-.1.6-.2.8h2zM186.3 84.5c0 .1-.1.3-.2.4-.1.1-.2.1-.4.1s-.4-.1-.7-.3l-2-2.2v1.7c0 .5-.2.8-.6.8-.4 0-.6-.3-.6-.8v-3.9c0-.5.2-.8.6-.8.4 0 .6.3.6.8v1.3l1.8-1.8c.2-.2.4-.3.6-.3.2 0 .3 0 .4.1.1.1.2.2.2.4s-.1.4-.3.6l-1.6 1.4 1.9 1.9c.2.2.3.4.3.6zM192 82.2c0 .8-.2 1.4-.6 2-.4.6-1 .9-1.8.9-.5 0-1-.2-1.4-.6v1.9c0 .6-.2.8-.6.8-.4 0-.6-.3-.6-.8v-6.1c0-.5.2-.8.6-.8.3 0 .4.1.5.4 0 .1 0 .1.1.3.3-.4.8-.6 1.4-.6.8 0 1.3.3 1.8.9.4.3.6 1 .6 1.7zm-1.2.1c0-.4-.1-.8-.3-1.1-.2-.4-.5-.5-1-.5-.4 0-.8.2-1 .5-.2.3-.3.7-.3 1.1v.2c0 .4.1.7.3 1 .2.3.6.5 1 .5s.8-.2 1-.5c.2-.4.3-.8.3-1.2zM198 84.2c0 .5-.2.8-.6.8-.4 0-.6-.3-.6-.8v-2.6l-2.4 2.7c0 .5-.2.7-.6.7-.4 0-.6-.3-.6-.8v-4c0-.5.2-.8.6-.8.4 0 .6.3.6.8v2.7l2.4-2.8c.1-.5.3-.7.7-.7.4 0 .6.3.6.8v4h-.1zM203 80c0 .4-.2.5-.7.5h-.8v3.7c0 .5-.2.8-.6.8-.4 0-.6-.3-.6-.8v-3.6h-.8c-.5 0-.7-.2-.7-.5 0-.4.2-.5.7-.5h2.9c.3-.1.6.1.6.4zM205.1 78.1c0 .2-.1.4-.2.5-.1.1-.3.2-.5.2s-.4-.1-.5-.2c-.1-.1-.2-.3-.2-.5s.1-.4.2-.5c.1-.1.3-.2.5-.2s.4.1.5.2c.2.2.2.3.2.5zm-.1 6.1c0 .5-.2.8-.6.8-.4 0-.6-.3-.6-.8v-3.9c0-.5.2-.8.6-.8.4 0 .6.3.6.8v3.9zM214.8 85.6c0 .4-.2.6-.6.6-.3 0-.5-.2-.5-.6V85H210v.6c0 .4-.2.6-.5.6-.4 0-.6-.2-.6-.6v-1c0-.3.1-.5.2-.5.1-.1.3-.1.4-.2.1-.1.2-.4.2-.7v-2.3c0-.5.1-.9.4-1.1.2-.2.6-.3 1.1-.3h2.2c.4 0 .6.3.6.8V84h.1c.4 0 .6.2.6.5v1.1h.1zm-1.9-1.6v-3.5h-1.4c-.3 0-.4.1-.4.4v2.3c0 .3-.1.6-.2.8h2zM220.2 84.2c0 .5-.2.8-.6.8-.4 0-.6-.3-.6-.8v-3.6h-1.4c-.3 0-.4.1-.4.4v2.7c0 .4-.1.7-.3 1-.2.3-.5.4-.9.4-.3 0-.5 0-.6-.1-.2-.1-.3-.2-.3-.5 0-.2.1-.4.2-.4.1-.1.3-.1.5-.1.1 0 .2-.1.2-.4V80.9c0-.5.1-.9.4-1.1.2-.2.6-.3 1.2-.3h2.1c.4 0 .6.3.6.8v3.9h-.1zM225.6 84.3c0 .2-.1.4-.2.5-.1.2-.3.2-.5.2s-.4-.1-.5-.2c-.1-.1-.2-.3-.2-.5v-1.5l-1.9 1.9-.2.2c-.1.1-.2.1-.3.1-.1 0-.3 0-.4-.1-.1-.1-.2-.2-.2-.3 0-.2.1-.4.2-.6l1.3-1.2c-1-.2-1.4-.8-1.4-1.7 0-.5.2-.9.5-1.2.3-.3.8-.5 1.6-.5h1.5c.4 0 .7.2.7.7v4.2zm-1.2-2.4v-1.5h-.7c-.7 0-1 .3-1 .8 0 .6.3.8 1 .8.2 0 .4-.1.7-.1zM233.9 80c0 .4-.2.5-.7.5h-.8v3.7c0 .5-.2.8-.6.8-.4 0-.6-.3-.6-.8v-3.6h-.8c-.5 0-.7-.2-.7-.5 0-.4.2-.5.7-.5h2.9c.3-.1.6.1.6.4zM239.4 81.9c0 .2-.1.4-.2.5-.1.1-.3.2-.6.2h-3c0 .4.2.7.4 1 .3.2.6.4 1 .4.3 0 .7-.1 1.1-.3.4-.2.6-.3.7-.3.3 0 .5.2.5.5 0 .1 0 .2-.2.4-.2.3-.5.5-1 .7-.4.1-.8.2-1.2.2-.8 0-1.4-.3-1.9-.8s-.7-1.2-.7-2 .2-1.4.7-2c.5-.5 1.1-.8 1.9-.8.7 0 1.3.2 1.7.8.6.3.8.9.8 1.5zm-1.2-.1c0-.4-.1-.7-.3-.9-.2-.3-.5-.4-.9-.4s-.7.1-.9.4c-.2.3-.4.6-.4.9h2.5zM245.4 82.3c0 .8-.2 1.5-.6 2-.5.5-1.1.8-1.9.8-.8 0-1.5-.3-1.9-.8-.4-.5-.6-1.2-.6-2V81c0-1.7.5-2.8 1.5-3.1.2-.1.6-.1 1-.1s.8-.1 1-.1c.2-.1.4-.2.5-.3.1-.1.2-.2.4-.2.3 0 .5.2.5.5s-.1.6-.4.8c-.2.2-.7.3-1.3.3-.7 0-1.1.1-1.3.2-.4.2-.6.6-.6 1.2.4-.4.9-.5 1.5-.5.8 0 1.4.3 1.8.8.2.3.4.9.4 1.8zm-1.3-.1c0-1.1-.4-1.7-1.3-1.7-.4 0-.8.2-1 .5-.2.3-.3.7-.3 1.1 0 1.1.4 1.7 1.3 1.7.9.2 1.3-.4 1.3-1.6zM251.2 81.9c0 .2-.1.4-.2.5-.1.1-.3.2-.6.2h-3c0 .4.2.7.4 1 .3.2.6.4 1 .4.3 0 .7-.1 1.1-.3.4-.2.6-.3.7-.3.3 0 .5.2.5.5 0 .1-.1.2-.2.4-.2.3-.5.5-1 .7-.4.1-.8.2-1.2.2-.8 0-1.4-.3-1.9-.8s-.7-1.2-.7-2 .2-1.4.7-2c.5-.5 1.1-.8 1.9-.8.7 0 1.3.2 1.7.8.6.3.8.9.8 1.5zm-1.2-.1c0-.4-.1-.7-.3-.9-.2-.3-.5-.4-.9-.4s-.7.1-.9.4c-.2.3-.4.6-.4.9h2.5z" fill="#6D6F71"/><path d="M134.3 60.3h2.4v-6.4c0-2.2.8-3.3 2.3-3.3 1.6 0 2.3 1.1 2.3 3.3v14.4c0 2.2-.8 3.3-2.3 3.3-1.6 0-2.3-1.1-2.3-3.3v-3.8h-3.2c-2.2 0-3.9-.6-5-1.8-1.2-1.2-1.7-2.9-1.7-5.1v-3.7c0-2.2.8-3.3 2.3-3.3 1.6 0 2.3 1.1 2.3 3.3v3.7c0 1.1.2 1.8.6 2.2.5.3 1.2.5 2.3.5zM154.1 50.8c2.2 0 3.3.7 3.3 2.2 0 1.5-1.1 2.2-3.3 2.2h-3.8v3.7h3.3c2.2 0 3.3.7 3.3 2.2 0 1.5-1.1 2.2-3.3 2.2h-3.3v3.9h4c2.2 0 3.3.7 3.3 2.2 0 1.4-1.1 2.2-3.3 2.2h-5.5c-1.2 0-2-.2-2.5-.6-.5-.4-.7-1.2-.7-2.4V54.1c0-1.2.2-2.1.7-2.6.5-.5 1.3-.7 2.5-.7h5.3zM163.1 71.6c-1.6 0-2.3-1.1-2.3-3.3V54.1c0-1.2.2-2.1.7-2.6.5-.5 1.3-.7 2.5-.7h4.2c2.3 0 4.1.6 5.4 1.8 1.4 1.2 2.1 3 2.1 5.2s-.6 3.9-1.9 5.2c-1.3 1.2-3 1.8-5.2 1.8h-3.2v3.5c0 2.2-.8 3.3-2.3 3.3zm2.3-11.1h2c2.1 0 3.2-.9 3.2-2.7 0-1.8-1.1-2.7-3.2-2.7h-2v5.4zM178.2 68.3V53.9c0-2.2.8-3.3 2.3-3.3 1.6 0 2.3 1.1 2.3 3.3v4.5l6-6.1c1.1-1.1 1.9-1.7 2.6-1.7.6 0 1.1.2 1.6.7.5.4.7 1 .7 1.6 0 .4-.2.9-.7 1.4l-1.2 1.2-4.7 4.7 6.3 7.1c.8.9 1.2 1.6 1.2 2.3 0 .6-.2 1.1-.7 1.5-.4.4-.9.7-1.5.7-.8 0-1.6-.5-2.5-1.6l-6.2-7.2-.8.7v4.8c0 2.2-.8 3.3-2.3 3.3-1.6-.2-2.4-1.3-2.4-3.5zM205 50.5c1.7 0 2.8.9 3.5 2.7l5.2 14.8c.2.6.3 1.1.3 1.5 0 .6-.2 1.2-.7 1.5-.4.4-1 .6-1.6.6-1.2 0-2-.7-2.5-2.2l-.8-2.4h-7.3l-.8 2.6c-.5 1.4-1.2 2-2.3 2-.7 0-1.2-.2-1.6-.6-.4-.4-.6-.9-.6-1.6 0-.5.1-.9.2-1.4l5.4-14.5c.8-2 2-3 3.6-3zm-.1 5.1-2.3 7.2h4.7l-2.4-7.2zM224.8 71.9c-3.1 0-5.6-1-7.4-3.1-1.8-2-2.6-4.5-2.6-7.7 0-3.1.9-5.6 2.7-7.7 1.9-2.1 4.3-3.2 7.4-3.2 1.1 0 2.1.2 3.1.5 1.2.4 2.1.9 2.6 1.6.3.4.5.8.5 1.2 0 .5-.2 1-.6 1.5-.4.4-.9.6-1.4.6-.5 0-1.1-.1-1.8-.4-.7-.3-1.5-.4-2.3-.4-1.7 0-3 .7-3.9 2-.8 1.2-1.2 2.6-1.2 4.4 0 1.7.4 3.2 1.3 4.3.9 1.2 2.2 1.9 3.9 1.9.8 0 1.6-.2 2.5-.5.9-.3 1.5-.5 1.9-.5.5 0 1 .2 1.3.6.4.4.5.9.5 1.4 0 .5-.2.9-.4 1.3-1.1 1.5-3.1 2.2-6.1 2.2zM247.6 58.8 239.1 70c-.8 1-1.7 1.6-2.7 1.6-1.4 0-2.1-.9-2.1-2.8v-15c0-2.2.8-3.3 2.3-3.3 1.6 0 2.3 1.1 2.3 3.3v9.6l8.7-11.4c.8-1 1.6-1.5 2.5-1.5 1.4 0 2.2 1.1 2.2 3.2v14.6c0 2.2-.8 3.3-2.3 3.3-1.6 0-2.3-1.1-2.3-3.3v-9.5h-.1z" fill="#000"/>
    </symbol>
    <symbol id="user">
      <path d="M210.352 246.633c33.882 0 63.222-12.153 87.195-36.13 23.973-23.972 36.125-53.304 36.125-87.19 0-33.876-12.152-63.211-36.129-87.192C273.566 12.152 244.23 0 210.352 0c-33.887 0-63.22 12.152-87.192 36.125s-36.129 53.309-36.129 87.188c0 33.886 12.156 63.222 36.133 87.195 23.977 23.969 53.313 36.125 87.188 36.125zM426.129 393.703c-.692-9.976-2.09-20.86-4.149-32.351-2.078-11.579-4.753-22.524-7.957-32.528-3.308-10.34-7.808-20.55-13.37-30.336-5.774-10.156-12.555-19-20.165-26.277-7.957-7.613-17.699-13.734-28.965-18.2-11.226-4.44-23.668-6.69-36.976-6.69-5.227 0-10.281 2.144-20.043 8.5a2711.03 2711.03 0 0 1-20.879 13.46c-6.707 4.274-15.793 8.278-27.016 11.903-10.949 3.543-22.066 5.34-33.039 5.34-10.972 0-22.086-1.797-33.047-5.34-11.21-3.622-20.296-7.625-26.996-11.899-7.77-4.965-14.8-9.496-20.898-13.469-9.75-6.355-14.809-8.5-20.035-8.5-13.313 0-25.75 2.254-36.973 6.7-11.258 4.457-21.004 10.578-28.969 18.199-7.605 7.281-14.39 16.12-20.156 26.273-5.558 9.785-10.058 19.992-13.371 30.34-3.2 10.004-5.875 20.945-7.953 32.524-2.059 11.476-3.457 22.363-4.149 32.363A438.821 438.821 0 0 0 0 423.949c0 26.727 8.496 48.363 25.25 64.32 16.547 15.747 38.441 23.735 65.066 23.735h246.532c26.625 0 48.511-7.984 65.062-23.734 16.758-15.946 25.254-37.586 25.254-64.325-.004-10.316-.351-20.492-1.035-30.242zm0 0"/>
    </symbol>
    <symbol id="phone">
      <path
        d="M25.302 0H9.698a2.37 2.37 0 00-2.364 2.364v30.271A2.371 2.371 0 009.698 35h15.604a2.37 2.37 0 002.364-2.364V2.364A2.37 2.37 0 0025.302 0zM15.004 1.704h4.992a.286.286 0 010 .573h-4.992a.286.286 0 110-.573zM17.5 33.818a1.183 1.183 0 11.001-2.365 1.183 1.183 0 01-.001 2.365zm8.521-3.193H8.979V3.749h17.042v26.876zM17.5 22.689a8.415 8.415 0 01-5.99-2.48.596.596 0 010-.839.596.596 0 01.84 0 7.234 7.234 0 005.15 2.134 7.234 7.234 0 005.15-2.134.596.596 0 01.84 0c.23.231.23.606 0 .839a8.41 8.41 0 01-5.99 2.48zm-1.336-9.677a1.44 1.44 0 11-2.878-.002 1.44 1.44 0 012.878.002zm5.549 0a1.439 1.439 0 11-2.878-.002 1.439 1.439 0 012.878.002z"/>
    </symbol>
    <symbol id="health">
      <path d="M53 24.267C53 42.633 32 61 32 61S11 42.633 11 24.267a21 21 0 1 1 42 0z"/>
      <path d="M19.625 46.953A86.778 86.778 0 0 0 32 61s17.6-15.4 20.567-32.1c-8.144 9.04-20.061 15.6-32.942 18.053z"/>
      <circle cx="32" cy="24" fill="#eee" r="17"/>
      <path d="M29 21v-8h6v8h8v6h-8v8h-6v-8h-8v-6z" fill="#ad2a37"/>
    </symbol>
    <symbol id="map">
      <path d="M258.499 512a15 15 0 0 1-12.745-7.091L102.869 274.652C85.289 246.26 76 213.534 76 180 76 80.748 156.748 0 256 0s180 80.748 180 180c0 32.539-8.779 64.428-25.389 92.22L271.368 504.707a15 15 0 0 1-12.75 7.292l-.119.001zM256 30c-82.71 0-150 67.29-150 150 0 27.95 7.734 55.214 22.368 78.846l129.905 209.34 126.594-211.368C398.689 233.688 406 207.121 406 180c0-82.71-67.29-150-150-150z"/>
      <path d="M256 270c-31.397 0-60.044-15.977-76.631-42.737C170.62 213.117 166 196.778 166 180c0-49.626 40.374-90 90-90s90 40.374 90 90c0 16.284-4.371 32.209-12.639 46.055C316.913 253.574 287.994 270 256 270zm0-150c-33.084 0-60 26.916-60 60 0 11.2 3.069 22.082 8.875 31.47C215.945 229.33 235.06 240 256 240c21.337 0 40.629-10.965 51.607-29.331 5.49-9.193 8.393-19.8 8.393-30.669 0-33.084-26.916-60-60-60z"/>
    </symbol>
    <symbol id="clock">
      <path d="M458.406 380.681c-8.863-6.593-21.391-4.752-27.984 4.109A217.989 217.989 0 0 1 418.889 399c-7.315 8.275-6.538 20.915 1.737 28.231a19.923 19.923 0 0 0 13.239 5.016c5.532 0 11.04-2.283 14.992-6.754a257.803 257.803 0 0 0 13.658-16.829c6.593-8.861 4.754-21.391-4.109-27.983zM491.854 286.886c-10.786-2.349-21.447 4.496-23.796 15.288a215.372 215.372 0 0 1-4.646 17.681c-3.261 10.554 2.651 21.752 13.204 25.013 1.967.607 3.955.896 5.911.896 8.54 0 16.448-5.514 19.102-14.102a255.373 255.373 0 0 0 5.514-20.98c2.349-10.792-4.496-21.446-15.289-23.796zM362.139 444.734a216.715 216.715 0 0 1-16.34 8.233c-10.067 4.546-14.542 16.392-9.996 26.459 3.34 7.396 10.619 11.773 18.239 11.773 2.752 0 5.549-.571 8.22-1.777a256.456 256.456 0 0 0 19.377-9.764c9.645-5.384 13.098-17.568 7.712-27.212-5.383-9.643-17.567-13.096-27.212-7.712zM236 96v151.716l-73.339 73.338c-7.81 7.811-7.81 20.474 0 28.284a19.935 19.935 0 0 0 14.143 5.858 19.943 19.943 0 0 0 14.143-5.858l79.196-79.196A20.001 20.001 0 0 0 276 256V96c0-11.046-8.954-20-20-20s-20 8.954-20 20z"/>
      <path d="M492 43c-11.046 0-20 8.954-20 20v55.536C425.448 45.528 344.151 0 256 0 187.62 0 123.333 26.629 74.98 74.98 26.629 123.333 0 187.62 0 256s26.629 132.667 74.98 181.02C123.333 485.371 187.62 512 256 512c.169 0 .332-.021.5-.025.168.004.331.025.5.025 7.208 0 14.487-.304 21.637-.902 11.007-.922 19.183-10.592 18.262-21.599-.923-11.007-10.58-19.187-21.6-18.261-6.044.505-12.2.762-18.299.762-.169 0-.332.021-.5.025-.168-.004-.331-.025-.5-.025-119.103 0-216-96.897-216-216S136.897 40 256 40c76.758 0 147.357 40.913 185.936 106h-54.993c-11.046 0-20 8.954-20 20s8.954 20 20 20H448a63.612 63.612 0 0 0 33.277-9.353 19.968 19.968 0 0 0 1.796-1.152C500.479 164.044 512 144.347 512 122V63c0-11.046-8.954-20-20-20z"/>
    </symbol>
    <symbol id="website">
      <path d="M113.66 23.69q-.345-.435-.72-.87A63.786 63.786 0 0 0 64.92.02C64.61.01 64.31 0 64 0s-.61.01-.92.02a63.789 63.789 0 0 0-48.15 22.96 6.164 6.164 0 0 0-.47.57.138.138 0 0 1-.03.04 63.8 63.8 0 0 0 0 80.82.138.138 0 0 1 .03.04 6.171 6.171 0 0 0 .47.57l.01.01a63.776 63.776 0 0 0 48.14 22.95c.614.02 1.226.02 1.84 0a63.786 63.786 0 0 0 48.02-22.8q.375-.435.72-.87a63.826 63.826 0 0 0 0-80.62zM99.49 62.25a106.208 106.208 0 0 0-4.07-28.03 69.57 69.57 0 0 0 16.19-7.51 60.158 60.158 0 0 1 12.86 35.54zM65.75 3.59c10.69 1.1 19.99 12.14 25.36 28.3a100.612 100.612 0 0 1-25.36 3.58zm-3.5 31.88a100.612 100.612 0 0 1-25.36-3.58c5.37-16.16 14.67-27.2 25.36-28.3zm0 3.5v23.28H32.01a104.4 104.4 0 0 1 3.85-27.02 104.159 104.159 0 0 0 26.39 3.74zm0 26.78v23.28a104.161 104.161 0 0 0-26.39 3.74 104.4 104.4 0 0 1-3.85-27.02zm0 26.78v31.88c-10.69-1.1-19.99-12.14-25.36-28.3a100.612 100.612 0 0 1 25.36-3.58zm3.5 0a100.612 100.612 0 0 1 25.36 3.58c-5.37 16.16-14.67 27.2-25.36 28.3zm0-3.5V65.75h30.24a104.477 104.477 0 0 1-3.85 27.03 103.333 103.333 0 0 0-26.39-3.75zm0-26.78V38.97a103.33 103.33 0 0 0 26.39-3.75 104.478 104.478 0 0 1 3.85 27.03zm43.6-38.26a66.171 66.171 0 0 1-14.98 6.91c-3.84-11.42-9.61-20.5-16.48-25.79a60.6 60.6 0 0 1 31.46 18.88zM50.11 5.11C43.24 10.4 37.47 19.48 33.63 30.9A67.031 67.031 0 0 1 18.65 24 60.513 60.513 0 0 1 50.11 5.11zM16.39 26.7a69.605 69.605 0 0 0 16.19 7.53 106.07 106.07 0 0 0-4.07 28.02H3.53A60.188 60.188 0 0 1 16.39 26.7zm12.12 39.05a106.069 106.069 0 0 0 4.07 28.02v.01a69.183 69.183 0 0 0-16.19 7.52A60.188 60.188 0 0 1 3.53 65.75zM18.65 104a67.031 67.031 0 0 1 14.98-6.9c3.84 11.42 9.61 20.5 16.48 25.79A60.514 60.514 0 0 1 18.65 104zm59.24 18.89c6.87-5.29 12.64-14.37 16.48-25.79a66.169 66.169 0 0 1 14.98 6.91 60.6 60.6 0 0 1-31.46 18.88zm33.72-21.6a69.573 69.573 0 0 0-16.19-7.51 106.208 106.208 0 0 0 4.07-28.03h24.98a60.158 60.158 0 0 1-12.86 35.54z"/>
    </symbol>
    <symbol id="tolerance">
      <path d="M115.166 446.001c38.599 0 70-31.402 70-70s-31.401-70-70-70-70 31.402-70 70 31.401 70 70 70zm0-120c27.57 0 50 22.43 50 50s-22.43 50-50 50-50-22.43-50-50 22.43-50 50-50z"/>
      <path d="M115.17 386.001c5.522 0 10-4.477 10-10s-4.478-10-10-10h-.008c-5.522 0-9.996 4.477-9.996 10s4.481 10 10.004 10z"/>
      <path d="M512.001 86c0-33.084-26.916-60-60-60s-60 26.916-60 60c0 25.461 16.449 48.194 40 56.565v23.436h-50.003c-1.175 0-2.336.061-3.486.161-2.246-3.6-4.961-6.999-8.127-10.154-20.861-20.794-54.805-20.794-75.664 0-2.848 2.838-6.521 2.149-8.677 0-20.861-20.795-54.805-20.795-75.664 0-13.556 13.512-18.525 30.609-14.699 49.992h-40.516v-20c0-1.135-.059-2.256-.152-3.367 23.749-8.269 40.153-30.732 40.153-56.632 0-33.084-26.916-60-60-60s-60 26.916-60 60a59.755 59.755 0 0 0 10.164 33.394 39.924 39.924 0 0 0-2.159 2.626A29.839 29.839 0 0 0 65.166 156H10c-5.522 0-10 4.477-10 10s4.478 10 10 10h25.166v124.436A110.957 110.957 0 0 0 16.92 326.49c-2.489 4.93-.511 10.945 4.42 13.434 4.931 2.49 10.945.51 13.434-4.42 15.416-30.535 46.221-49.503 80.393-49.503 49.626 0 90 40.374 90 90s-40.374 90-90 90c-34.176 0-64.981-18.971-80.396-49.51-2.488-4.93-8.504-6.911-13.434-4.421-4.931 2.488-6.91 8.503-4.422 13.433 18.835 37.316 56.482 60.498 98.251 60.498 53.826 0 98.741-38.862 108.173-90.001h.231l8.732 32.588c5.62 20.979 26.571 37.412 47.697 37.412h30a10 10 0 0 0 9.66-12.589l-26.795-100C287.242 332.433 266.291 316 245.166 316h-37.851a110.892 110.892 0 0 0-28.977-29.999h56.831c4.271 0 7.907-2.683 9.34-6.452 15.492 13.764 31.731 24.176 43.293 27.264a9.988 9.988 0 0 0 5.16 0c18.555-4.956 52.408-30.725 73.624-60.811H432V456c0 5.523 4.478 10 10 10h60c5.522 0 10-4.477 10-10V136.001a39.772 39.772 0 0 0-6.792-22.273A59.785 59.785 0 0 0 512.001 86zM245.166 336c11.894 0 25.154 10.555 28.379 22.588L296.967 446h-16.968c-11.894 0-25.155-10.555-28.379-22.588l-10.718-40a10 10 0 0 0-9.659-7.412h-6.077c0-14.105-2.672-27.597-7.531-40zM412.001 86c0-22.056 17.944-40 40-40s40 17.944 40 40a39.95 39.95 0 0 1-2.532 14.024 39.749 39.749 0 0 0-17.468-4.023c-17.123 0-31.763 10.818-37.457 25.977-13.462-6.588-22.543-20.528-22.543-35.978zm30 100.002c5.522 0 10-4.477 10-10v-40.001c0-11.028 8.972-20 20-20s20 8.972 20 20v70.001c0 11.028-8.972 20-19.999 20H361.998v-20c0-11.028 8.972-20 20-20zM135.167 86.001c22.056 0 40 17.944 40 40 0 17.274-10.938 32.254-26.772 37.76-7.186-10.702-19.398-17.76-33.229-17.76-4.635 0-9.083.801-13.226 2.257a39.838 39.838 0 0 1-6.773-22.257c0-22.056 17.944-40 40-40zM75.166 186v60.001c0 9.258 3.17 17.785 8.471 24.571a109.135 109.135 0 0 0-28.471 13.14V176h10c5.514 0 10 4.486 10 10zm150.003 80.001H115.166c-11.028 0-20-8.972-20-20V186c0-11.028 8.972-20 20-20s20 8.972 20 20v30.001c0 5.523 4.478 10 10 10h60.004c11.027 0 19.999 8.972 19.999 20zm65.22 20.643c-10.592-4.038-28.983-17.041-45.22-34.321v-6.322c0-18.04-12.006-33.322-28.446-38.292-4.69-15.327-2.143-27.646 7.777-37.536 13.075-13.032 34.349-13.035 47.426 0 10.349 10.316 26.564 10.317 36.915 0 13.075-13.032 34.349-13.035 47.426 0a39.034 39.034 0 0 1 2.784 3.095c-10.302 7.244-17.053 19.211-17.053 32.733v30a9.96 9.96 0 0 0 2.295 6.374c-17.769 22.08-41.202 39.454-53.904 44.269zM452.001 446V246.002h20.001a39.737 39.737 0 0 0 19.999-5.381V446z"/>
      <path d="M25.166 375.993c0-5.523-4.478-10-10-10s-10 4.477-10 10V376c0 5.523 4.478 9.996 10 9.996s10-4.48 10-10.003z"/>
    </symbol>
    <symbol id="baby">
      <path d="M216.784 280.57c0-26.935-21.913-48.848-48.848-48.848s-48.849 21.913-48.849 48.848h29.648c0-10.587 8.614-19.2 19.201-19.2s19.2 8.613 19.2 19.2zM338.058 231.721c-26.935 0-48.848 21.913-48.848 48.848h29.648c0-10.587 8.613-19.2 19.2-19.2s19.201 8.613 19.201 19.2h29.648c0-26.935-21.913-48.848-48.849-48.848zM252.997 367.32c-18.744 0-36.319-10.052-45.869-26.234l-25.534 15.066c14.856 25.176 42.216 40.815 71.402 40.815s56.546-15.639 71.402-40.815l-25.534-15.067c-9.548 16.182-27.124 26.235-45.867 26.235z"/>
      <path d="M486.704 228.061c-9.442-9.431-21.299-15.667-34.169-18.109-27.794-85.888-108.42-145.023-199.538-145.023h-9.939c-23.868 0-43.286-19.419-43.286-43.286h-29.648c0 16.196 5.313 31.17 14.278 43.286h-9.393c-23.868 0-43.286-19.419-43.286-43.286h-29.648c0 32.213 20.999 59.596 50.02 69.226-45.899 25.234-81.875 67.29-98.635 119.083-12.87 2.442-24.73 8.68-34.18 18.12C6.847 240.518 0 257.056 0 274.64c0 17.368 6.7 33.754 18.867 46.141 9.509 9.681 21.518 16.069 34.593 18.548 27.792 85.888 108.418 145.022 199.537 145.022s171.744-59.134 199.537-145.022c13.075-2.479 25.084-8.867 34.593-18.548 12.167-12.387 18.867-28.773 18.867-46.141 0-17.584-6.847-34.122-19.29-46.579zm-45.85 82.771-11.125.211-2.905 10.741c-21.164 78.26-92.644 132.918-173.828 132.918S100.333 400.045 79.17 321.784l-2.905-10.741-11.125-.211c-19.571-.37-35.493-16.605-35.493-36.192 0-9.671 3.767-18.768 10.595-25.604 6.659-6.652 15.501-10.413 24.895-10.589l11.127-.209 2.905-10.743c21.164-78.259 92.644-132.917 173.828-132.917 26.795 0 48.594 21.799 48.594 48.594s-21.799 48.595-48.594 48.595-48.594-21.799-48.594-48.594h-29.648c0 43.143 35.099 78.242 78.242 78.242s78.242-35.099 78.242-78.242a77.756 77.756 0 0 0-7.912-34.251c49.725 21.151 88.779 64.152 103.497 118.574l2.905 10.743 11.127.209c9.395.176 18.236 3.937 24.884 10.577 6.84 6.848 10.607 15.945 10.607 25.616-.001 19.587-15.923 35.822-35.493 36.191z"/>
    </symbol>
    <symbol id="paw">
      <path d="M378.608 290.994c-34.448-41.592-77.99-64.498-122.608-64.498s-88.161 22.906-122.607 64.498c-30.963 37.385-49.448 84.501-49.448 126.035 0 20.176 6.168 35.544 18.332 45.679 12.006 10.004 27.857 13.388 45.541 13.387 18.817 0 39.711-3.832 60.24-7.598 17.939-3.291 34.883-6.399 47.943-6.399 11.272 0 27.165 2.95 43.988 6.073 39.317 7.3 83.881 15.572 109.624-5.832 12.238-10.175 18.443-25.42 18.443-45.31.001-41.534-18.484-88.65-49.448-126.035zM382.13 65.146c-12.604-18.583-30.652-29.24-49.517-29.24-18.866 0-36.913 10.658-49.517 29.24-11.578 17.071-17.955 39.489-17.955 63.125 0 23.636 6.376 46.054 17.955 63.125 12.604 18.582 30.652 29.24 49.517 29.24 18.866 0 36.913-10.658 49.517-29.24 11.578-17.071 17.955-39.489 17.955-63.125 0-23.636-6.376-46.055-17.955-63.125zM228.905 65.145c-12.604-18.583-30.651-29.24-49.517-29.24s-36.914 10.658-49.517 29.24c-11.578 17.071-17.955 39.489-17.955 63.125s6.376 46.054 17.955 63.125c12.604 18.583 30.651 29.241 49.517 29.241s36.913-10.658 49.517-29.241c11.578-17.071 17.955-39.488 17.955-63.125-.001-23.636-6.377-46.055-17.955-63.125zM509.019 210.133c-5.081-17.284-15.972-29.843-30.665-35.362-11.824-4.441-25.171-3.688-37.583 2.121-17.105 8.004-31.086 24.532-38.356 45.345-5.941 17.008-6.682 34.985-2.085 50.622 5.081 17.284 15.972 29.843 30.666 35.362 5.085 1.91 10.45 2.859 15.902 2.859 7.227 0 14.607-1.669 21.682-4.98 17.105-8.004 31.086-24.532 38.356-45.344v-.001c5.94-17.007 6.681-34.985 2.083-50.622zM109.587 222.235c-7.271-20.813-21.252-37.34-38.356-45.344-12.413-5.809-25.761-6.561-37.584-2.121-14.694 5.52-25.585 18.079-30.666 35.362-4.597 15.637-3.856 33.615 2.085 50.622v.001c7.272 20.813 21.252 37.34 38.356 45.344 7.076 3.311 14.455 4.98 21.682 4.98 5.452 0 10.818-.95 15.902-2.859 14.696-5.52 25.586-18.079 30.667-35.362 4.595-15.636 3.854-33.614-2.086-50.623z"/>
    </symbol>
  </defs>
</svg>
