<svg xmlns="http://www.w3.org/2000/svg">
  <defs>
    <symbol id="logo">
      <path d="M93.6 80.8c0 2.4-9.5 4.3-21.2 4.3s-21.2-1.9-21.2-4.3 9.5-4.3 21.2-4.3 21.2 1.9 21.2 4.3zM83.8 90.5c0 1.3-5.1 2.4-11.3 2.4-6.3 0-11.3-1.1-11.3-2.4 0-1.3 5.1-2.4 11.3-2.4 6.2 0 11.3 1 11.3 2.4z" fill="#FDB724"/><path d="M98.6 44.7c-1.9-.5-3.8-.7-5.7-.6-7.7.5-14.6 5.8-16.6 13.7-.9 3.6-1.1 8 1 11.1 2 2.9 5.2 4.3 8 1.5 3-3 5.3-15.3 13.6-15.5 2.7-.1 4.5 1.6 4.7 4 .1 1.3-.3 2.4-1.1 3.3-.8.9-1.7 1.5-2.9 2.1 1-1.2.8-3.8-1.1-3.8-3.9-.1-3.4 5.3-3 7.7.5 3.1 1.8 6.5 4.7 8.2.6.4 1.4.6 2.2.7 1 .1 2.6-.1 4.3-1.7 2.3-2.2 4-5.1 4.9-8.4 2.6-9.8-3.2-19.8-13-22.3z" fill="#15A4AB"/><path d="M68.9 59.1c-1.5-8-7.9-13.8-15.6-14.8-1.9-.3-3.8-.2-5.8.2-9.9 1.9-16.5 11.4-14.6 21.4.6 3.3 2.1 6.2 4.1 8.5.8.8 1.9 1.8 3.3 2 5.4.7 8.3-6.5 8.2-9.2-1.8.4-3.6-.2-3.6-.2s3.7-7.2 4.3-14.1c4.4 8.4 8.9 11.4 9 11.4 0 0-1.5 1.2-3.3 1.5.9 2.4 5.8 7.8 10.4 5.9 1.7-.9 2.4-2.2 2.8-3.1 0-.1.1-.2.1-.4v-.1c1-2.7 1.3-5.9.7-9z" fill="#72BF44"/><path d="M84.4 28.8c-3.1-2.9-7.7-4.6-12-4.6s-8.8 1.7-12 4.6c-2.5 2.3-6.5 7-4.6 10.7 1.1 2 3.5 3 5.5 3.6 3.2.9 6.4 1.3 9.3 1.3-1.1-1.5-2.5-7.2 1.8-7.3 4.3 0 2.9 5.8 1.8 7.3 3.2 0 6.6-.4 9.3-1.3 2-.7 4.4-1.6 5.5-3.6 1.9-3.7-2.1-8.5-4.6-10.7z" fill="#F6861F"/><path d="M172.1 83.4c0 1.1-.7 1.6-2.1 1.6h-1.5c-.5 0-.7-.2-.7-.7v-4c0-.5.2-.7.7-.7h1.4c1.3 0 1.9.5 1.9 1.5 0 .5-.2.9-.6 1.1.3.1.5.3.7.5.1.1.2.4.2.7zm-3.1-3v1.4h.7c.5 0 .8-.2.8-.7 0-.4-.3-.7-.8-.7h-.7zm1.8 3c0-.5-.3-.8-1-.8h-.8v1.5h.8c.7 0 1-.3 1-.7zM174.5 78.1c0 .2-.1.4-.2.5-.1.1-.3.2-.5.2s-.4-.1-.5-.2c-.1-.1-.2-.3-.2-.5s.1-.4.2-.5c.1-.1.3-.2.5-.2s.4.1.5.2c.2.2.2.3.2.5zm-.1 6.1c0 .5-.2.8-.6.8-.4 0-.6-.3-.6-.8v-3.9c0-.5.2-.8.6-.8.4 0 .6.3.6.8v3.9zM181 85.6c0 .4-.2.6-.6.6-.3 0-.5-.2-.5-.6V85h-3.7v.6c0 .4-.2.6-.5.6-.4 0-.6-.2-.6-.6v-1c0-.3.1-.5.2-.5.1-.1.3-.1.4-.2.2-.1.2-.4.2-.7v-2.3c0-.5.1-.9.4-1.1.2-.2.6-.3 1.1-.3h2.2c.4 0 .6.3.6.8V84h.1c.4 0 .6.2.6.5v1.1h.1zm-1.9-1.6v-3.5h-1.4c-.3 0-.4.1-.4.4v2.3c0 .3-.1.6-.2.8h2zM186.3 84.5c0 .1-.1.3-.2.4-.1.1-.2.1-.4.1s-.4-.1-.7-.3l-2-2.2v1.7c0 .5-.2.8-.6.8-.4 0-.6-.3-.6-.8v-3.9c0-.5.2-.8.6-.8.4 0 .6.3.6.8v1.3l1.8-1.8c.2-.2.4-.3.6-.3.2 0 .3 0 .4.1.1.1.2.2.2.4s-.1.4-.3.6l-1.6 1.4 1.9 1.9c.2.2.3.4.3.6zM192 82.2c0 .8-.2 1.4-.6 2-.4.6-1 .9-1.8.9-.5 0-1-.2-1.4-.6v1.9c0 .6-.2.8-.6.8-.4 0-.6-.3-.6-.8v-6.1c0-.5.2-.8.6-.8.3 0 .4.1.5.4 0 .1 0 .1.1.3.3-.4.8-.6 1.4-.6.8 0 1.3.3 1.8.9.4.3.6 1 .6 1.7zm-1.2.1c0-.4-.1-.8-.3-1.1-.2-.4-.5-.5-1-.5-.4 0-.8.2-1 .5-.2.3-.3.7-.3 1.1v.2c0 .4.1.7.3 1 .2.3.6.5 1 .5s.8-.2 1-.5c.2-.4.3-.8.3-1.2zM198 84.2c0 .5-.2.8-.6.8-.4 0-.6-.3-.6-.8v-2.6l-2.4 2.7c0 .5-.2.7-.6.7-.4 0-.6-.3-.6-.8v-4c0-.5.2-.8.6-.8.4 0 .6.3.6.8v2.7l2.4-2.8c.1-.5.3-.7.7-.7.4 0 .6.3.6.8v4h-.1zM203 80c0 .4-.2.5-.7.5h-.8v3.7c0 .5-.2.8-.6.8-.4 0-.6-.3-.6-.8v-3.6h-.8c-.5 0-.7-.2-.7-.5 0-.4.2-.5.7-.5h2.9c.3-.1.6.1.6.4zM205.1 78.1c0 .2-.1.4-.2.5-.1.1-.3.2-.5.2s-.4-.1-.5-.2c-.1-.1-.2-.3-.2-.5s.1-.4.2-.5c.1-.1.3-.2.5-.2s.4.1.5.2c.2.2.2.3.2.5zm-.1 6.1c0 .5-.2.8-.6.8-.4 0-.6-.3-.6-.8v-3.9c0-.5.2-.8.6-.8.4 0 .6.3.6.8v3.9zM214.8 85.6c0 .4-.2.6-.6.6-.3 0-.5-.2-.5-.6V85H210v.6c0 .4-.2.6-.5.6-.4 0-.6-.2-.6-.6v-1c0-.3.1-.5.2-.5.1-.1.3-.1.4-.2.1-.1.2-.4.2-.7v-2.3c0-.5.1-.9.4-1.1.2-.2.6-.3 1.1-.3h2.2c.4 0 .6.3.6.8V84h.1c.4 0 .6.2.6.5v1.1h.1zm-1.9-1.6v-3.5h-1.4c-.3 0-.4.1-.4.4v2.3c0 .3-.1.6-.2.8h2zM220.2 84.2c0 .5-.2.8-.6.8-.4 0-.6-.3-.6-.8v-3.6h-1.4c-.3 0-.4.1-.4.4v2.7c0 .4-.1.7-.3 1-.2.3-.5.4-.9.4-.3 0-.5 0-.6-.1-.2-.1-.3-.2-.3-.5 0-.2.1-.4.2-.4.1-.1.3-.1.5-.1.1 0 .2-.1.2-.4V80.9c0-.5.1-.9.4-1.1.2-.2.6-.3 1.2-.3h2.1c.4 0 .6.3.6.8v3.9h-.1zM225.6 84.3c0 .2-.1.4-.2.5-.1.2-.3.2-.5.2s-.4-.1-.5-.2c-.1-.1-.2-.3-.2-.5v-1.5l-1.9 1.9-.2.2c-.1.1-.2.1-.3.1-.1 0-.3 0-.4-.1-.1-.1-.2-.2-.2-.3 0-.2.1-.4.2-.6l1.3-1.2c-1-.2-1.4-.8-1.4-1.7 0-.5.2-.9.5-1.2.3-.3.8-.5 1.6-.5h1.5c.4 0 .7.2.7.7v4.2zm-1.2-2.4v-1.5h-.7c-.7 0-1 .3-1 .8 0 .6.3.8 1 .8.2 0 .4-.1.7-.1zM233.9 80c0 .4-.2.5-.7.5h-.8v3.7c0 .5-.2.8-.6.8-.4 0-.6-.3-.6-.8v-3.6h-.8c-.5 0-.7-.2-.7-.5 0-.4.2-.5.7-.5h2.9c.3-.1.6.1.6.4zM239.4 81.9c0 .2-.1.4-.2.5-.1.1-.3.2-.6.2h-3c0 .4.2.7.4 1 .3.2.6.4 1 .4.3 0 .7-.1 1.1-.3.4-.2.6-.3.7-.3.3 0 .5.2.5.5 0 .1 0 .2-.2.4-.2.3-.5.5-1 .7-.4.1-.8.2-1.2.2-.8 0-1.4-.3-1.9-.8s-.7-1.2-.7-2 .2-1.4.7-2c.5-.5 1.1-.8 1.9-.8.7 0 1.3.2 1.7.8.6.3.8.9.8 1.5zm-1.2-.1c0-.4-.1-.7-.3-.9-.2-.3-.5-.4-.9-.4s-.7.1-.9.4c-.2.3-.4.6-.4.9h2.5zM245.4 82.3c0 .8-.2 1.5-.6 2-.5.5-1.1.8-1.9.8-.8 0-1.5-.3-1.9-.8-.4-.5-.6-1.2-.6-2V81c0-1.7.5-2.8 1.5-3.1.2-.1.6-.1 1-.1s.8-.1 1-.1c.2-.1.4-.2.5-.3.1-.1.2-.2.4-.2.3 0 .5.2.5.5s-.1.6-.4.8c-.2.2-.7.3-1.3.3-.7 0-1.1.1-1.3.2-.4.2-.6.6-.6 1.2.4-.4.9-.5 1.5-.5.8 0 1.4.3 1.8.8.2.3.4.9.4 1.8zm-1.3-.1c0-1.1-.4-1.7-1.3-1.7-.4 0-.8.2-1 .5-.2.3-.3.7-.3 1.1 0 1.1.4 1.7 1.3 1.7.9.2 1.3-.4 1.3-1.6zM251.2 81.9c0 .2-.1.4-.2.5-.1.1-.3.2-.6.2h-3c0 .4.2.7.4 1 .3.2.6.4 1 .4.3 0 .7-.1 1.1-.3.4-.2.6-.3.7-.3.3 0 .5.2.5.5 0 .1-.1.2-.2.4-.2.3-.5.5-1 .7-.4.1-.8.2-1.2.2-.8 0-1.4-.3-1.9-.8s-.7-1.2-.7-2 .2-1.4.7-2c.5-.5 1.1-.8 1.9-.8.7 0 1.3.2 1.7.8.6.3.8.9.8 1.5zm-1.2-.1c0-.4-.1-.7-.3-.9-.2-.3-.5-.4-.9-.4s-.7.1-.9.4c-.2.3-.4.6-.4.9h2.5z" fill="#6D6F71"/><path d="M134.3 60.3h2.4v-6.4c0-2.2.8-3.3 2.3-3.3 1.6 0 2.3 1.1 2.3 3.3v14.4c0 2.2-.8 3.3-2.3 3.3-1.6 0-2.3-1.1-2.3-3.3v-3.8h-3.2c-2.2 0-3.9-.6-5-1.8-1.2-1.2-1.7-2.9-1.7-5.1v-3.7c0-2.2.8-3.3 2.3-3.3 1.6 0 2.3 1.1 2.3 3.3v3.7c0 1.1.2 1.8.6 2.2.5.3 1.2.5 2.3.5zM154.1 50.8c2.2 0 3.3.7 3.3 2.2 0 1.5-1.1 2.2-3.3 2.2h-3.8v3.7h3.3c2.2 0 3.3.7 3.3 2.2 0 1.5-1.1 2.2-3.3 2.2h-3.3v3.9h4c2.2 0 3.3.7 3.3 2.2 0 1.4-1.1 2.2-3.3 2.2h-5.5c-1.2 0-2-.2-2.5-.6-.5-.4-.7-1.2-.7-2.4V54.1c0-1.2.2-2.1.7-2.6.5-.5 1.3-.7 2.5-.7h5.3zM163.1 71.6c-1.6 0-2.3-1.1-2.3-3.3V54.1c0-1.2.2-2.1.7-2.6.5-.5 1.3-.7 2.5-.7h4.2c2.3 0 4.1.6 5.4 1.8 1.4 1.2 2.1 3 2.1 5.2s-.6 3.9-1.9 5.2c-1.3 1.2-3 1.8-5.2 1.8h-3.2v3.5c0 2.2-.8 3.3-2.3 3.3zm2.3-11.1h2c2.1 0 3.2-.9 3.2-2.7 0-1.8-1.1-2.7-3.2-2.7h-2v5.4zM178.2 68.3V53.9c0-2.2.8-3.3 2.3-3.3 1.6 0 2.3 1.1 2.3 3.3v4.5l6-6.1c1.1-1.1 1.9-1.7 2.6-1.7.6 0 1.1.2 1.6.7.5.4.7 1 .7 1.6 0 .4-.2.9-.7 1.4l-1.2 1.2-4.7 4.7 6.3 7.1c.8.9 1.2 1.6 1.2 2.3 0 .6-.2 1.1-.7 1.5-.4.4-.9.7-1.5.7-.8 0-1.6-.5-2.5-1.6l-6.2-7.2-.8.7v4.8c0 2.2-.8 3.3-2.3 3.3-1.6-.2-2.4-1.3-2.4-3.5zM205 50.5c1.7 0 2.8.9 3.5 2.7l5.2 14.8c.2.6.3 1.1.3 1.5 0 .6-.2 1.2-.7 1.5-.4.4-1 .6-1.6.6-1.2 0-2-.7-2.5-2.2l-.8-2.4h-7.3l-.8 2.6c-.5 1.4-1.2 2-2.3 2-.7 0-1.2-.2-1.6-.6-.4-.4-.6-.9-.6-1.6 0-.5.1-.9.2-1.4l5.4-14.5c.8-2 2-3 3.6-3zm-.1 5.1-2.3 7.2h4.7l-2.4-7.2zM224.8 71.9c-3.1 0-5.6-1-7.4-3.1-1.8-2-2.6-4.5-2.6-7.7 0-3.1.9-5.6 2.7-7.7 1.9-2.1 4.3-3.2 7.4-3.2 1.1 0 2.1.2 3.1.5 1.2.4 2.1.9 2.6 1.6.3.4.5.8.5 1.2 0 .5-.2 1-.6 1.5-.4.4-.9.6-1.4.6-.5 0-1.1-.1-1.8-.4-.7-.3-1.5-.4-2.3-.4-1.7 0-3 .7-3.9 2-.8 1.2-1.2 2.6-1.2 4.4 0 1.7.4 3.2 1.3 4.3.9 1.2 2.2 1.9 3.9 1.9.8 0 1.6-.2 2.5-.5.9-.3 1.5-.5 1.9-.5.5 0 1 .2 1.3.6.4.4.5.9.5 1.4 0 .5-.2.9-.4 1.3-1.1 1.5-3.1 2.2-6.1 2.2zM247.6 58.8 239.1 70c-.8 1-1.7 1.6-2.7 1.6-1.4 0-2.1-.9-2.1-2.8v-15c0-2.2.8-3.3 2.3-3.3 1.6 0 2.3 1.1 2.3 3.3v9.6l8.7-11.4c.8-1 1.6-1.5 2.5-1.5 1.4 0 2.2 1.1 2.2 3.2v14.6c0 2.2-.8 3.3-2.3 3.3-1.6 0-2.3-1.1-2.3-3.3v-9.5h-.1z" fill="#000"/>
    </symbol>
    <symbol id="user">
      <path d="M210.352 246.633c33.882 0 63.222-12.153 87.195-36.13 23.973-23.972 36.125-53.304 36.125-87.19 0-33.876-12.152-63.211-36.129-87.192C273.566 12.152 244.23 0 210.352 0c-33.887 0-63.22 12.152-87.192 36.125s-36.129 53.309-36.129 87.188c0 33.886 12.156 63.222 36.133 87.195 23.977 23.969 53.313 36.125 87.188 36.125zM426.129 393.703c-.692-9.976-2.09-20.86-4.149-32.351-2.078-11.579-4.753-22.524-7.957-32.528-3.308-10.34-7.808-20.55-13.37-30.336-5.774-10.156-12.555-19-20.165-26.277-7.957-7.613-17.699-13.734-28.965-18.2-11.226-4.44-23.668-6.69-36.976-6.69-5.227 0-10.281 2.144-20.043 8.5a2711.03 2711.03 0 0 1-20.879 13.46c-6.707 4.274-15.793 8.278-27.016 11.903-10.949 3.543-22.066 5.34-33.039 5.34-10.972 0-22.086-1.797-33.047-5.34-11.21-3.622-20.296-7.625-26.996-11.899-7.77-4.965-14.8-9.496-20.898-13.469-9.75-6.355-14.809-8.5-20.035-8.5-13.313 0-25.75 2.254-36.973 6.7-11.258 4.457-21.004 10.578-28.969 18.199-7.605 7.281-14.39 16.12-20.156 26.273-5.558 9.785-10.058 19.992-13.371 30.34-3.2 10.004-5.875 20.945-7.953 32.524-2.059 11.476-3.457 22.363-4.149 32.363A438.821 438.821 0 0 0 0 423.949c0 26.727 8.496 48.363 25.25 64.32 16.547 15.747 38.441 23.735 65.066 23.735h246.532c26.625 0 48.511-7.984 65.062-23.734 16.758-15.946 25.254-37.586 25.254-64.325-.004-10.316-.351-20.492-1.035-30.242zm0 0"/>
    </symbol>
    <symbol id="phone">
      <path
        d="M25.302 0H9.698a2.37 2.37 0 00-2.364 2.364v30.271A2.371 2.371 0 009.698 35h15.604a2.37 2.37 0 002.364-2.364V2.364A2.37 2.37 0 0025.302 0zM15.004 1.704h4.992a.286.286 0 010 .573h-4.992a.286.286 0 110-.573zM17.5 33.818a1.183 1.183 0 11.001-2.365 1.183 1.183 0 01-.001 2.365zm8.521-3.193H8.979V3.749h17.042v26.876zM17.5 22.689a8.415 8.415 0 01-5.99-2.48.596.596 0 010-.839.596.596 0 01.84 0 7.234 7.234 0 005.15 2.134 7.234 7.234 0 005.15-2.134.596.596 0 01.84 0c.23.231.23.606 0 .839a8.41 8.41 0 01-5.99 2.48zm-1.336-9.677a1.44 1.44 0 11-2.878-.002 1.44 1.44 0 012.878.002zm5.549 0a1.439 1.439 0 11-2.878-.002 1.439 1.439 0 012.878.002z"/>
    </symbol>
    <symbol id="health">
      <path d="M53 24.267C53 42.633 32 61 32 61S11 42.633 11 24.267a21 21 0 1 1 42 0z"/>
      <path d="M19.625 46.953A86.778 86.778 0 0 0 32 61s17.6-15.4 20.567-32.1c-8.144 9.04-20.061 15.6-32.942 18.053z"/>
      <circle cx="32" cy="24" fill="#eee" r="17"/>
      <path d="M29 21v-8h6v8h8v6h-8v8h-6v-8h-8v-6z" fill="#ad2a37"/>
    </symbol>
  </defs>
</svg>
